ffmpeg version 3.4.8-0ubuntu0.2 Copyright (c) 2000-2020 the FFmpeg developers
  built with gcc 7 (Ubuntu 7.5.0-3ubuntu1~18.04)
  configuration: --prefix=/usr --extra-version=0ubuntu0.2 --toolchain=hardened --libdir=/usr/lib/x86_64-linux-gnu --incdir=/usr/include/x86_64-linux-gnu --enable-gpl --disable-stripping --enable-avresample --enable-avisynth --enable-gnutls --enable-ladspa --enable-libass --enable-libbluray --enable-libbs2b --enable-libcaca --enable-libcdio --enable-libflite --enable-libfontconfig --enable-libfreetype --enable-libfribidi --enable-libgme --enable-libgsm --enable-libmp3lame --enable-libmysofa --enable-libopenjpeg --enable-libopenmpt --enable-libopus --enable-libpulse --enable-librubberband --enable-librsvg --enable-libshine --enable-libsnappy --enable-libsoxr --enable-libspeex --enable-libssh --enable-libtheora --enable-libtwolame --enable-libvorbis --enable-libvpx --enable-libwavpack --enable-libwebp --enable-libx265 --enable-libxml2 --enable-libxvid --enable-libzmq --enable-libzvbi --enable-omx --enable-openal --enable-opengl --enable-sdl2 --enable-libdc1394 --enable-libdrm --enable-libiec61883 --enable-chromaprint --enable-frei0r --enable-libopencv --enable-libx264 --enable-shared
  libavutil      55. 78.100 / 55. 78.100
  libavcodec     57.107.100 / 57.107.100
  libavformat    57. 83.100 / 57. 83.100
  libavdevice    57. 10.100 / 57. 10.100
  libavfilter     6.107.100 /  6.107.100
  libavresample   3.  7.  0 /  3.  7.  0
  libswscale      4.  8.100 /  4.  8.100
  libswresample   2.  9.100 /  2.  9.100
  libpostproc    54.  7.100 / 54.  7.100
[rawvideo @ 0x55a0c17e1a20] Estimating duration from bitrate, this may be inaccurate
Input #0, rawvideo, from '../../SVC-Encoder-20220109T061506Z-001/SVC-Encoder/Dataset/RollerCoaster/ERP_8x8/tile_yuv/Tile_32_480x240.yuv':
  Duration: 00:00:10.00, start: 0.000000, bitrate: 41472 kb/s
    Stream #0:0: Video: rawvideo (I420 / 0x30323449), yuv420p, 480x240, 41472 kb/s, 30 tbr, 30 tbn, 30 tbc
Stream mapping:
  Stream #0:0 -> #0:0 (rawvideo (native) -> h264 (libx264))
Press [q] to stop, [?] for help
[libx264 @ 0x55a0c17eec60] using cpu capabilities: MMX2 SSE2Fast LZCNT SSSE3 SSE4.2 AVX
[libx264 @ 0x55a0c17eec60] profile High, level 2.1
Output #0, rawvideo, to 'RollerCoaster_Tile_32_480x240_x264_QP_24.h264':
  Metadata:
    encoder         : Lavf57.83.100
    Stream #0:0: Video: h264 (libx264), yuv420p, 480x240, q=-1--1, 30 fps, 30 tbn, 30 tbc
    Metadata:
      encoder         : Lavc57.107.100 libx264
    Side data:
      cpb: bitrate max/min/avg: 0/0/0 buffer size: 0 vbv_delay: -1
frame=  124 fps=0.0 q=30.0 PSNR=Y:nan U:nan V:nan *:nan size=     147kB time=00:00:02.70 bitrate= 444.7kbits/s speed=5.31x    frame=  228 fps=226 q=30.0 PSNR=Y:nan U:nan V:nan *:nan size=     256kB time=00:00:06.16 bitrate= 340.1kbits/s speed=6.11x    frame=  300 fps=201 q=30.0 LPSNR=Y:inf U:inf V:inf *:inf size=     511kB time=00:00:09.93 bitrate= 421.1kbits/s speed=6.67x    
video:511kB audio:0kB subtitle:0kB other streams:0kB global headers:0kB muxing overhead: 0.000000%
[libx264 @ 0x55a0c17eec60] frame I:2     Avg QP:21.85  size: 19758  PSNR Mean Y:44.32 U:48.54 V:49.77 Avg:45.42 Global:45.36
[libx264 @ 0x55a0c17eec60] frame P:76    Avg QP:23.62  size:  4554  PSNR Mean Y:40.97 U:47.79 V:48.68 Avg:42.34 Global:42.27
[libx264 @ 0x55a0c17eec60] frame B:222   Avg QP:29.44  size:   618  PSNR Mean Y:40.32 U:47.54 V:48.45 Avg:41.72 Global:41.67
[libx264 @ 0x55a0c17eec60] consecutive B-frames:  1.0%  0.7%  1.0% 97.3%
[libx264 @ 0x55a0c17eec60] mb I  I16..4:  1.0% 72.1% 26.9%
[libx264 @ 0x55a0c17eec60] mb P  I16..4:  0.1%  1.9%  0.5%  P16..4: 38.5% 30.7% 19.5%  0.0%  0.0%    skip: 8.7%
[libx264 @ 0x55a0c17eec60] mb B  I16..4:  0.0%  0.1%  0.0%  B16..8: 51.0%  7.3%  1.0%  direct: 0.6%  skip:40.1%  L0:40.5% L1:51.2% BI: 8.3%
[libx264 @ 0x55a0c17eec60] 8x8 transform intra:72.9% inter:62.8%
[libx264 @ 0x55a0c17eec60] coded y,uvDC,uvAC intra: 92.1% 86.6% 43.4% inter: 15.7% 10.5% 0.1%
[libx264 @ 0x55a0c17eec60] i16 v,h,dc,p: 13% 19% 19% 49%
[libx264 @ 0x55a0c17eec60] i8 v,h,dc,ddl,ddr,vr,hd,vl,hu:  9% 19%  9%  6% 12%  9% 10% 11% 14%
[libx264 @ 0x55a0c17eec60] i4 v,h,dc,ddl,ddr,vr,hd,vl,hu: 15% 15% 11%  6% 15% 10%  9% 10%  8%
[libx264 @ 0x55a0c17eec60] i8c dc,h,v,p: 35% 29% 14% 22%
[libx264 @ 0x55a0c17eec60] Weighted P-Frames: Y:0.0% UV:0.0%
[libx264 @ 0x55a0c17eec60] ref P L0: 61.4% 18.9% 16.5%  3.2%
[libx264 @ 0x55a0c17eec60] ref B L0: 91.0%  7.7%  1.3%
[libx264 @ 0x55a0c17eec60] ref B L1: 94.6%  5.4%
[libx264 @ 0x55a0c17eec60] PSNR Mean Y:40.511 U:47.610 V:48.517 Avg:41.902 Global:41.830 kb/s:418.27
